<svg xmlns="http://www.w3.org/2000/svg" xmlns:xlink="http://www.w3.org/1999/xlink" width="330" height="360" viewBox="0 0 330 360">
    <defs>
        <linearGradient id="3g46hkgrgb" x1="29.833%" x2="74.174%" y1="87.913%" y2="16.255%">
            <stop offset="0%" stop-color="#0072E6"/>
            <stop offset="100%" stop-color="#0CA"/>
        </linearGradient>
        <linearGradient id="wv3a7bd94e" x1="35.403%" x2="64.083%" y1="79.643%" y2="8.12%">
            <stop offset="0%" stop-color="#0072E6"/>
            <stop offset="100%" stop-color="#0CA"/>
        </linearGradient>
        <path id="ezq2s8l96a" d="M61.073.38v130.149l60.253-20.102v66.652l-66.307 28.83L.792 182.332v18.77l54.227 23.388 84.45-36.428V34.2L61.073.38zm18.142 26.496l42.111 18.307V91.53l-42.111 14.05V26.876z"/>
        <path id="yt9mak0mxd" d="M78.965.38L.569 34.2v153.862l18.142 7.826v-85.461l60.254 20.102V.38zM18.711 91.53V45.183l42.111-18.307v78.704L18.711 91.53z"/>
    </defs>
    <g fill="none" fill-rule="evenodd">
        <g>
            <g>
                <path fill="#00274E" d="M0 0H330V360H0z" transform="translate(-795 -360) translate(795 360)"/>
                <g>
                    <g transform="translate(-795 -360) translate(795 360) translate(57 42) translate(53 .619)">
                        <mask id="5lvc5ahosc" fill="#fff">
                            <use xlink:href="#ezq2s8l96a"/>
                        </mask>
                        <path fill="url(#3g46hkgrgb)" d="M61.073.38v130.149l60.253-20.102v66.652l-66.307 28.83L.792 182.332v18.77l54.227 23.388 84.45-36.428V34.2L61.073.38zm18.142 26.496l42.111 18.307V91.53l-42.111 14.05V26.876z" mask="url(#5lvc5ahosc)"/>
                    </g>
                    <g transform="translate(-795 -360) translate(795 360) translate(57 42) translate(23 .619)">
                        <mask id="3y5nzwdnqf" fill="#fff">
                            <use xlink:href="#yt9mak0mxd"/>
                        </mask>
                        <path fill="url(#wv3a7bd94e)" d="M78.965.38L.569 34.2v153.862l18.142 7.826v-85.461l60.254 20.102V.38zM18.711 91.53V45.183l42.111-18.307v78.704L18.711 91.53z" mask="url(#3y5nzwdnqf)"/>
                    </g>
                    <path fill="#FFF" d="M30.758 251.325L30.758 276.618 52.911 276.618 52.911 272.579 36.258 272.579 36.258 251.325zM72.093 251.325L57.443 276.618 63.235 276.618 73.829 258.454 84.245 276.618 90.098 276.618 75.541 251.325zM119.106 251.325L119.105 269.291 99.786 251.325 95.355 251.325 95.355 276.618 100.642 276.618 100.642 258.764 119.964 276.618 124.394 276.618 124.394 251.325zM131.431 251.325L131.431 276.618 154.19 276.618 154.19 272.579 136.93 272.579 136.93 265.253 153.284 265.253 153.284 261.214 136.93 261.214 136.93 255.363 154.19 255.363 154.19 251.325zM192.821 251.325v15.526H212.9v5.728h-19.058v4.04h23.972v-25.295h-24.992zm4.915 11.486H212.9v-7.447h-15.163v7.446zM0 251.325v25.293h5.499v-9.495h19.494v-15.798H0zm5.499 11.76h13.994v-7.721H5.499v7.72zM160.225 251.325L160.225 255.363 170.841 255.363 170.841 276.618 176.34 276.618 176.34 255.363 186.956 255.363 186.956 251.325zM236.825 251.346c.14 0 .268.038.38.116.113.077.17.18.17.306v5.728c0 .127-.05.233-.148.318-.1.084-.212.126-.34.126-.14 0-.26-.042-.358-.126-.1-.085-.147-.191-.147-.318v-4.291l-2.304 4.059c-.071.155-.205.232-.402.232-.211 0-.373-.091-.486-.274l-2.261-3.932v4.206c0 .127-.05.233-.15.318-.098.084-.218.126-.358.126-.141 0-.257-.042-.35-.126-.091-.085-.137-.191-.137-.318v-5.728c0-.126.057-.233.17-.317.113-.084.24-.126.38-.126.226 0 .38.083.465.253l2.706 4.67 2.705-4.67c.085-.155.239-.232.465-.232m-8.095.116c.084.077.127.172.127.285 0 .113-.043.208-.127.286-.085.077-.197.116-.34.116h-2.048v5.347c0 .127-.046.233-.138.318-.092.084-.208.126-.35.126-.14 0-.256-.042-.347-.126-.092-.085-.138-.191-.138-.318v-5.347h-2.071c-.127 0-.233-.04-.317-.116-.085-.078-.127-.173-.127-.286 0-.113.042-.208.127-.285.084-.078.19-.116.317-.116h5.093c.142 0 .254.038.339.116" transform="translate(-795 -360) translate(795 360) translate(57 42)"/>
                </g>
            </g>
        </g>
    </g>
</svg>
